<?xml version="1.0" standalone="no"?>
<!DOCTYPE svg PUBLIC "-//W3C//DTD SVG 20010904//EN"
 "http://www.w3.org/TR/2001/REC-SVG-20010904/DTD/svg10.dtd">
<svg version="1.0" xmlns="http://www.w3.org/2000/svg"
 width="64.000000pt" height="64.000000pt" viewBox="0 0 64.000000 64.000000"
 preserveAspectRatio="xMidYMid meet">

<g transform="translate(0.000000,64.000000) scale(0.100000,-0.100000)"
fill="#000000" stroke="none">
<path d="M223 622 c-109 -39 -178 -112 -210 -221 -17 -58 -14 -133 7 -186 16
-39 25 -15 11 27 -31 88 3 213 79 288 95 96 238 117 354 51 61 -34 66 -36 66
-22 0 6 -30 24 -67 42 -83 41 -163 48 -240 21z"/>
<path d="M214 561 c-52 -24 -111 -83 -135 -135 -25 -55 -25 -157 0 -212 24
-52 83 -111 135 -135 55 -25 157 -25 212 0 52 24 111 83 135 135 25 55 25 157
0 212 -24 52 -83 111 -135 135 -55 25 -157 25 -212 0z m213 -23 c83 -38 135
-123 135 -218 0 -137 -104 -242 -240 -242 -139 0 -244 104 -244 240 0 65 12
103 48 150 71 92 193 121 301 70z"/>
<path d="M210 320 l0 -130 45 0 45 0 0 130 0 130 -45 0 -45 0 0 -130z m70 0
l0 -110 -25 0 -25 0 0 110 0 110 25 0 25 0 0 -110z"/>
<path d="M340 320 l0 -130 45 0 45 0 0 90 c0 53 -4 90 -10 90 -6 0 -10 -33
-10 -80 0 -79 0 -80 -25 -80 l-25 0 0 110 0 110 25 0 c16 0 25 -6 25 -15 0 -8
5 -15 10 -15 6 0 10 11 10 25 0 23 -4 25 -45 25 l-45 0 0 -130z"/>
<path d="M570 484 c17 -27 35 -64 40 -84 54 -195 -107 -392 -310 -377 -82 5
-138 33 -201 100 -32 32 -49 44 -49 34 0 -25 72 -93 132 -124 44 -22 66 -27
133 -27 66 -1 90 4 136 25 175 82 241 304 137 459 -36 53 -52 47 -18 -6z"/>
</g>
</svg>
