<?xml version="1.0" standalone="no"?>
<!DOCTYPE svg PUBLIC "-//W3C//DTD SVG 20010904//EN"
 "http://www.w3.org/TR/2001/REC-SVG-20010904/DTD/svg10.dtd">
<svg version="1.0" xmlns="http://www.w3.org/2000/svg"
 width="64.000000pt" height="64.000000pt" viewBox="0 0 64.000000 64.000000"
 preserveAspectRatio="xMidYMid meet">

<g transform="translate(0.000000,64.000000) scale(0.100000,-0.100000)"
fill="#000000" stroke="none">
<path d="M223 602 c-251 -90 -272 -432 -35 -549 81 -40 183 -40 264 0 107 53
163 144 163 267 0 85 -21 142 -74 203 -72 81 -213 117 -318 79z m212 -50 c47
-24 95 -73 121 -122 26 -49 26 -171 0 -220 -26 -49 -74 -98 -121 -123 -31 -17
-58 -22 -115 -22 -85 0 -133 20 -186 77 -54 57 -69 95 -69 178 0 83 15 121 69
178 31 34 70 58 116 73 41 14 142 3 185 -19z"/>
<path d="M240 320 c0 -100 3 -140 12 -140 23 0 228 125 228 140 0 15 -205 140
-228 140 -9 0 -12 -40 -12 -140z m180 0 c0 -3 -32 -22 -70 -43 l-70 -38 0 81
0 81 70 -38 c38 -21 70 -40 70 -43z"/>
</g>
</svg>
